<?xml version="1.0" encoding="UTF-8"?>
<svg id="Layer_2" data-name="Layer 2" xmlns="http://www.w3.org/2000/svg" viewBox="0 0 264.9 173.34">
  <defs>
    <style>
      .cls-1 {
        fill: #efd0e0;
      }

      .cls-2 {
        fill: #fff;
      }

      .cls-3 {
        fill: #d63c83;
      }
    </style>
  </defs>
  <g id="Layer_1-2" data-name="Layer 1">
    <g>
      <path class="cls-3" d="M263.5,37.29c-13.39-9.72-41.34-27.09-54.76-36.62-.85-.61-1.62-.85-2.74-.54C164.57,11.47,1.16,54.56,1.16,54.56c-1.18.36-1.55,1.85-.68,2.73l47.77,47.53c.39.39.56.94.45,1.48l-13.91,65.09c-.24,1.21.9,2.24,2.09,1.88l209.68-66.2c.58-.18,1.6-.68,2.02-2.29,3.99-15.2,12.62-48.02,16.18-63.38.34-1.48.11-3.11-1.26-4.1Z"/>
      <path class="cls-3" d="M264.26,93.6h-1.33l-.8,2.29c-.1.34-.2.73-.32,1.16h-.02c-.12-.48-.2-.82-.31-1.18l-.8-2.27h-1.38l-.34,4.64h.89l.17-2.73c.02-.43.03-.87.03-1.3h.05c.1.41.24.96.32,1.31l.84,2.65h.96l.84-2.58c.14-.43.27-.97.39-1.38h.05c.02.49.02.94.03,1.3l.17,2.73h.92l-.36-4.64Z"/>
      <polygon class="cls-3" points="254.79 94.37 256.27 94.37 256.27 98.24 257.19 98.24 257.19 94.37 258.68 94.37 258.68 93.6 254.79 93.6 254.79 94.37"/>
      <g>
        <path class="cls-2" d="M131.43,63.41l-13.7,4.2c.11.24.21.48.28.71.69,1.92.26,3.11-1.28,3.58-1.27.39-2.86.1-4.76-.85-.35-.17-.71-.37-1.08-.59-1.53-.91-3.14-2.16-4.84-3.73l22.9-7.01c-.74-.96-1.58-1.95-2.5-2.95-5.31-5.78-11.19-9.87-17.62-12.28-3.69-1.38-7.23-2.08-10.64-2.1-2.53-.02-5,.33-7.38,1.06-4.55,1.39-7.32,3.86-8.33,7.39-.66,2.32-.45,4.83.61,7.54.03.08.08.16.11.25-.43-.81-.81-1.6-1.12-2.38l-5.59-7.14-12.31,3.77,14.47,17.3,5.77,6.91c-1.31-1.27-2.58-2.47-3.83-3.6-1.24-1.13-2.48-2.22-3.73-3.26l-18.7-15.51-9.81,2.62,12.07,17.96c.68,1.03,1.93,2.76,3.73,5.22.28.37.85,1.12,1.71,2.26l-6.5-6.81-17.01-17.21-12.76,3.61,39.03,36.84,15.31-4.69-8.89-13.34c-.72-1.09-1.55-2.27-2.48-3.53-.93-1.26-1.97-2.62-3.12-4.08,2.38,2.29,4.63,4.31,6.75,6.05l15.18,12.61,15.2-4.65-11.09-14.17c4.43,3.51,9.12,5.97,14.1,7.35,4.54,1.25,8.75,1.57,12.64.96.04,0,.1-.02.15-.02,1.06-.17,2.09-.41,3.1-.72.98-.3,1.87-.65,2.67-1.04.77-.38,1.48-.81,2.09-1.28,2.26-1.7,3.44-3.99,3.54-6.85.11-2.62-.68-5.41-2.37-8.38ZM97.96,56.28c-.67-2.01-.22-3.24,1.32-3.72.1-.03.21-.06.32-.08,2.25-.49,5.23.89,8.95,4.15l-8.99,2.75c-.8-1.18-1.33-2.21-1.6-3.11Z"/>
        <path class="cls-1" d="M196.93,65.74c-2.65-3.68-6.75-4.66-12.33-2.95-4.55,1.39-8.72,4.33-12.53,8.8-.24.28-.47.56-.7.85l-6.15,14.04,3.81-10.8,2.88-8.15-12.79,3.92-5.1,17.34c-.76,2.6-1.48,5.25-2.14,7.94-.67,2.7-1.31,5.57-1.94,8.62.46-6.58.66-12.47.61-17.66l-.15-13.57-12.37,3.79.25,3.83c.22.29.42.6.61.94,1.29,2.24,2.01,5.18,2.16,8.85-.32-3.25-1.21-5.88-2.64-7.87,0,0-.01-.01-.01-.02-2.16-2.98-5.27-4.19-9.36-3.61-.94.13-1.91.35-2.95.67-.95.29-1.89.65-2.81,1.08-.1.05-.2.09-.3.13-3.37,1.62-6.51,4.15-9.43,7.59-3.85,4.54-6.59,9.85-8.25,15.96l1.25-17.92-15.2,4.65-5.52,18.94c-.78,2.63-1.51,5.56-2.21,8.8.13-1.85.23-3.55.3-5.12.06-1.57.09-3.01.08-4.32l-.11-16.02-15.31,4.69-11.4,51.16,12.53-3.84,4.21-22.91,1.57-9.28c-.07,1.43-.12,2.36-.15,2.83-.12,3.04-.18,5.17-.17,6.41l.05,21.26,9.6-2.94,6.8-23.33c.45-1.56.88-3.15,1.27-4.79.39-1.64.78-3.34,1.15-5.13l-.91,8.96-2.3,22.44,12.31-3.77.58-8.3.29-4.16c.6,2.92,1.77,5.16,3.5,6.73,2.9,2.59,6.73,3.16,11.48,1.7,2.7-.83,5.24-2.18,7.59-4.06,2.33-1.85,4.47-4.2,6.46-7.05,3.17-4.55,5.43-9.67,6.75-15.34l1.21,18.87,12-3.67,9.44-26.73c-1.21,9-.02,15.12,3.56,18.37,2.89,2.59,6.72,3.15,11.48,1.7,5.36-1.64,10.05-5.34,14.05-11.09,2.35-3.37,4.19-7.05,5.53-11.03l-13.7,4.2c-.13.32-.27.64-.41.94-1.16,2.54-2.51,4.04-4.05,4.51-1.5.46-2.52-.34-3.04-2.39-.34-1.31-.44-3.07-.32-5.25l22.9-7.01c.29-1.31.53-2.65.72-4.03,1.11-7.94.35-13.75-2.29-17.43ZM127.15,105.32c-.57,4.07-1.45,7.37-2.65,9.92-.56,1.24-1.19,2.24-1.85,2.99-.48.53-.97.94-1.5,1.22-.23.12-.46.22-.7.29-1.5.46-2.52-.33-3.04-2.39-.52-2.05-.49-5.18.1-9.37.6-4.25,1.5-7.62,2.7-10.09.02-.03.03-.07.04-.09,1.24-2.59,2.62-4.12,4.15-4.59.1-.03.22-.06.31-.07,2.84-.58,3.65,3.48,2.43,12.17ZM186.2,81.4l-8.99,2.75c.44-1.6.94-2.97,1.52-4.16,1.25-2.65,2.65-4.21,4.19-4.68,2.28-.7,3.38,1.33,3.28,6.08Z"/>
      </g>
      <path class="cls-2" d="M234.52,96.09l-13.24,4.05s-4.8-7.84-5.21-8.48c-.67,1.26-6.34,12.01-6.34,12.01l-17.36,5.3,15.86-30.05-11.65-18.94,13.23-4.05,5.67,9.23c.7-1.34,6.9-13.08,6.9-13.08l17.35-5.32-16.42,31.13,11.18,18.19Z"/>
    </g>
  </g>
</svg>
